<svg width="111" height="29" viewBox="0 0 111 29" fill="none" xmlns="http://www.w3.org/2000/svg">
<g clip-path="url(#clip0_145_6594)">
<mask id="mask0_145_6594" style="mask-type:luminance" maskUnits="userSpaceOnUse" x="0" y="0" width="111" height="29">
<path d="M111 0H0V28.793H111V0Z" fill="white"/>
</mask>
<g mask="url(#mask0_145_6594)">
<path d="M39.901 18.7117C40.2514 18.7196 40.6015 18.6852 40.9434 18.6092C41.1787 18.5576 41.4017 18.4619 41.6001 18.3272C41.7547 18.2238 41.8745 18.0774 41.9441 17.9068C42.0096 17.7321 42.0423 17.5471 42.0405 17.3608C42.0407 17.1464 41.9852 16.9355 41.8794 16.748C41.7737 16.5606 41.621 16.4027 41.4359 16.2894C40.7846 15.8974 40.0836 15.5914 39.3511 15.3794C38.9185 15.2307 38.4841 15.0599 38.0481 14.8668C37.6263 14.6795 37.2347 14.4326 36.8858 14.1337C36.5316 13.8396 36.241 13.4788 36.031 13.0725C35.7984 12.5929 35.6859 12.0656 35.7026 11.5345C35.6938 10.9753 35.8113 10.4212 36.0466 9.91205C36.2712 9.43518 36.6037 9.01519 37.0186 8.68425C37.4719 8.33248 37.9907 8.07125 38.5458 7.91525C39.2013 7.72548 39.8823 7.63388 40.5655 7.64355C41.9247 7.61592 43.269 7.92533 44.4746 8.54325L43.6172 10.8502C43.2215 10.6521 42.8102 10.4857 42.3871 10.3529C41.858 10.1986 41.3076 10.126 40.7558 10.1376C40.0434 10.1376 39.5317 10.235 39.2208 10.4298C39.0688 10.5231 38.9454 10.655 38.8632 10.8115C38.7812 10.968 38.7436 11.1434 38.7543 11.3192C38.7469 11.5319 38.807 11.7415 38.9263 11.919C39.0561 12.0966 39.2209 12.2466 39.411 12.3599C39.6398 12.4978 39.8815 12.6137 40.1329 12.7059C40.3935 12.8136 40.7089 12.9212 41.0398 13.0341C41.7348 13.2853 42.3324 13.5322 42.8328 13.7749C43.2991 13.9916 43.7275 14.2796 44.1019 14.6284C44.4358 14.9511 44.693 15.3423 44.8551 15.7741C45.0366 16.2864 45.1248 16.8262 45.1157 17.3686C45.1157 18.5801 44.6814 19.5199 43.8126 20.1881C42.944 20.8562 41.6409 21.1903 39.9036 21.1903C39.3744 21.1944 38.8457 21.1601 38.3217 21.0878C37.8997 21.0279 37.482 20.9423 37.0708 20.8315C36.7527 20.7469 36.4409 20.6407 36.1378 20.5136C35.8772 20.4008 35.6583 20.2958 35.4785 20.1958L36.3176 17.8684C36.7845 18.1158 37.2773 18.3126 37.7875 18.4554C38.4761 18.6385 39.1877 18.7247 39.901 18.7117Z" fill="#FF6F36"/>
<path d="M47.1097 8.60748L49.9504 8.15894V11.0657H53.3643V13.3905H49.9504V16.8611C49.9266 17.3494 50.0354 17.8352 50.2657 18.2684C50.4741 18.6196 50.899 18.781 51.5348 18.781C51.8512 18.7799 52.1669 18.7517 52.4782 18.6965C52.7808 18.6467 53.0775 18.5677 53.3643 18.4607L53.7656 20.6369C53.3947 20.7923 53.0121 20.92 52.6216 21.0188C52.1142 21.1281 51.5955 21.1789 51.0761 21.17C50.4199 21.1907 49.7657 21.0853 49.1503 20.8598C48.6757 20.6774 48.256 20.3792 47.9307 19.9935C47.6129 19.6023 47.3933 19.143 47.2896 18.6529C47.1646 18.0802 47.1043 17.4956 47.1097 16.9098V8.60748Z" fill="#FF6F36"/>
<path d="M64.2339 20.5933C63.6196 20.7588 62.9955 20.8871 62.3654 20.9778C61.5705 21.1002 60.767 21.1601 59.9626 21.1572C59.2383 21.1785 58.5165 21.0637 57.836 20.8188C57.3123 20.623 56.8491 20.2971 56.4913 19.873C56.1507 19.4451 55.9097 18.949 55.7851 18.4196C55.6401 17.8106 55.5701 17.1867 55.5766 16.5613V11.0657H58.4171V16.2229C58.4171 17.1217 58.5379 17.772 58.7794 18.1736C59.0217 18.576 59.4726 18.7734 60.1345 18.7734C60.3378 18.7734 60.5542 18.7734 60.7808 18.7477C61.0076 18.7221 61.2135 18.7067 61.3933 18.6811V11.0657H64.2339V20.5933Z" fill="#FF6F36"/>
<path d="M75.7522 20.6137C75.4917 20.6881 75.2051 20.7598 74.874 20.8291C74.543 20.8983 74.1964 20.9572 73.8316 21.0059C73.4668 21.0546 73.102 21.0982 72.7266 21.129C72.3514 21.1597 71.9918 21.1751 71.6478 21.1751C70.8945 21.1875 70.1451 21.0669 69.4352 20.8188C68.8192 20.6045 68.2603 20.2562 67.8 19.8C67.3397 19.3438 66.9901 18.7913 66.777 18.1838C66.5313 17.5001 66.4113 16.7788 66.4226 16.0537C66.4131 15.3208 66.5158 14.5906 66.7275 13.8878C66.9075 13.2894 67.206 12.7319 67.6057 12.2473C67.9837 11.801 68.4643 11.4495 69.0078 11.222C69.608 10.9742 70.2541 10.852 70.905 10.8631C71.261 10.8595 71.6162 10.8973 71.9631 10.9759C72.2864 11.0558 72.6019 11.163 72.9065 11.2964V6.82601L75.7496 6.37744L75.7522 20.6137ZM69.3205 15.923C69.283 16.6611 69.4897 17.3914 69.9095 18.0043C70.1135 18.268 70.3806 18.478 70.6871 18.6158C70.9935 18.7535 71.3298 18.8147 71.666 18.7938C71.9266 18.7938 72.1533 18.7938 72.3696 18.7656C72.5859 18.7374 72.7631 18.7246 72.8909 18.6989V13.6161C72.6807 13.4879 72.4523 13.3912 72.2133 13.329C71.93 13.2555 71.6383 13.2185 71.3455 13.2187C69.9955 13.2222 69.3205 14.1236 69.3205 15.923Z" fill="#FF6F36"/>
<path d="M87.0428 11.0657C86.4675 12.9676 85.8681 14.7473 85.2444 16.4049C84.6206 18.0625 83.9388 19.6773 83.1986 21.2495C82.9679 21.747 82.6996 22.2268 82.396 22.6849C82.1537 23.0512 81.8578 23.3803 81.5177 23.6615C81.1999 23.9177 80.833 24.1086 80.4388 24.2228C79.9819 24.349 79.5087 24.4095 79.0341 24.4023C78.6207 24.4055 78.2083 24.3642 77.804 24.2792C77.4883 24.215 77.1788 24.1241 76.8789 24.0075L77.3741 21.7749C77.6286 21.8646 77.89 21.934 78.1558 21.9826C78.3954 22.0203 78.6377 22.0391 78.8804 22.0389C79.0934 22.0525 79.3072 22.0237 79.5087 21.9541C79.7102 21.8845 79.8954 21.7755 80.0531 21.634C80.3598 21.3127 80.5966 20.9334 80.7489 20.5189C80.0991 19.2681 79.4511 17.8643 78.8048 16.3075C78.1023 14.5934 77.4934 12.8436 76.9805 11.0657H79.9931C80.1217 11.5527 80.272 12.0807 80.444 12.6498C80.616 13.2188 80.7984 13.7955 80.9887 14.3748C81.1789 14.9541 81.3744 15.5231 81.5725 16.0742C81.7705 16.6253 81.9607 17.1226 82.138 17.5738C82.3047 17.1226 82.4767 16.6253 82.6591 16.0742C82.8416 15.5231 83.0136 14.9567 83.1803 14.3748C83.3472 13.793 83.5165 13.2188 83.6781 12.6498C83.8397 12.0807 83.9804 11.5527 84.1081 11.0657H87.0428Z" fill="#FF6F36"/>
<path d="M94.0795 20.876C93.2609 20.8941 92.4466 20.7638 91.6766 20.4915C91.0453 20.2638 90.4755 19.8983 90.009 19.4227C89.565 18.9577 89.2328 18.4005 89.0368 17.7925C88.8192 17.1161 88.7125 16.4101 88.7212 15.7008V7.62915H91.7078V15.4573C91.6974 15.9106 91.7581 16.3627 91.8873 16.7979C91.987 17.1285 92.1553 17.4351 92.3825 17.6976C92.5888 17.926 92.8525 18.0975 93.1465 18.1949C93.463 18.2981 93.7951 18.3492 94.129 18.3461C94.455 18.3605 94.7802 18.3095 95.0855 18.1962C95.3899 18.0831 95.6691 17.9098 95.9032 17.6874C96.3542 17.2516 96.5814 16.5057 96.5814 15.4573V7.62915H99.5524V15.7008C99.5602 16.4132 99.4509 17.1221 99.2289 17.8001C99.0277 18.4142 98.6878 18.9757 98.236 19.4432C97.7608 19.9192 97.1797 20.2813 96.5398 20.5018C95.7489 20.7698 94.9155 20.8965 94.0795 20.876Z" fill="#5552D8"/>
<path d="M111 15.9997C111.008 16.7035 110.911 17.4046 110.714 18.0811C110.544 18.6673 110.258 19.2152 109.874 19.6934C109.506 20.1441 109.036 20.504 108.501 20.7443C107.907 21.0035 107.263 21.1313 106.614 21.1185C106.242 21.1205 105.872 21.0827 105.509 21.0057C105.168 20.9327 104.836 20.8263 104.517 20.6879V24.4021H101.676V11.4038C101.936 11.3269 102.223 11.2552 102.552 11.1885C102.879 11.1219 103.229 11.0604 103.594 11.0091C103.958 10.9578 104.326 10.9194 104.701 10.886C105.077 10.8528 105.433 10.8399 105.778 10.8399C106.532 10.8281 107.281 10.9524 107.99 11.2065C108.607 11.4242 109.167 11.7758 109.628 12.2349C110.088 12.6942 110.438 13.2493 110.651 13.8594C110.893 14.5474 111.011 15.2718 111 15.9997ZM108.103 16.074C108.14 15.3379 107.932 14.61 107.51 14.0004C107.304 13.7413 107.037 13.5359 106.731 13.4019C106.425 13.2679 106.091 13.2093 105.757 13.2314C105.496 13.2314 105.267 13.2314 105.051 13.2596C104.834 13.2878 104.657 13.2981 104.517 13.3237V18.3605C104.732 18.4896 104.967 18.5847 105.212 18.6424C105.495 18.718 105.787 18.7559 106.08 18.7553C107.428 18.7553 108.103 17.8615 108.103 16.074Z" fill="#5552D8"/>
<path d="M18.338 8.61256C18.0276 8.42396 17.6673 8.33015 17.3028 8.34295C16.9381 8.35576 16.5855 8.4746 16.2895 8.68446C15.9937 8.89428 15.7676 9.18574 15.6399 9.52196C15.5124 9.85811 15.489 10.224 15.5727 10.5732C15.6565 10.9225 15.8437 11.2395 16.1106 11.4842C16.3775 11.7289 16.7121 11.8902 17.0723 11.9478C17.4324 12.0055 17.8017 11.9568 18.1338 11.8079C18.4657 11.6591 18.7454 11.4169 18.9374 11.1117C19.0651 10.9089 19.1507 10.6834 19.1897 10.448C19.2286 10.2127 19.22 9.97198 19.1644 9.73989C19.1087 9.50781 19.007 9.28877 18.8653 9.09532C18.7235 8.90188 18.5443 8.73786 18.338 8.61256ZM18.4397 9.32511C18.1504 9.15844 17.8063 9.10957 17.481 9.18898C17.1555 9.26847 16.8746 9.46976 16.6981 9.75013C16.5215 10.0305 16.4634 10.3676 16.5361 10.6895C16.6088 11.0114 16.8066 11.2926 17.0872 11.4731H17.1028C16.9397 11.4413 16.7835 11.3814 16.6415 11.2963C16.3305 11.1072 16.1086 10.8044 16.0244 10.4545C15.9404 10.1046 16.0011 9.73614 16.1933 9.43019C16.3855 9.12424 16.6932 8.90597 17.049 8.82332C17.4048 8.74058 17.7795 8.80029 18.0905 8.9893C18.2344 9.07605 18.36 9.18923 18.4605 9.32255L18.4397 9.32511Z" fill="#F2881D"/>
<path d="M22.2158 8.39217C22.2158 6.31337 21.3532 3.82959 21.3532 3.82959C19.8 4.03828 18.2848 4.46199 16.8525 5.08814C15.4243 4.75976 13.9391 4.75315 12.508 5.06879C11.0769 5.38445 9.73685 6.01419 8.58802 6.91096C7.4392 7.80773 6.51132 8.9483 5.87377 10.2474C5.23621 11.5466 4.90547 12.9707 4.90626 14.4133C4.90252 16.5417 5.62366 18.61 6.95463 20.2882C8.98473 19.1194 10.5171 17.0867 10.5171 17.0867C11.0803 17.646 11.7154 18.1303 12.4065 18.5273C12.4065 18.5273 11.9687 19.9806 10.009 22.3209C10.1418 22.2363 12.2475 20.8265 13.2509 18.9681C13.4541 19.0579 13.6705 19.1398 13.8894 19.2245C13.8894 19.2245 12.6385 21.7339 12.2814 23.7229C14.2654 24.2158 16.3568 24.0812 18.2586 23.3384C20.1604 22.5956 21.7759 21.2823 22.8757 19.5851C23.9755 17.8879 24.5037 15.893 24.3852 13.8837C24.2667 11.8745 23.5076 9.95298 22.2158 8.39217ZM20.9778 11.4168C19.9068 13.8724 16.2062 16.8458 16.0915 16.9381L17.5874 16.3177C18.9399 17.1354 18.8904 18.0146 18.1086 19.3398C16.829 21.3443 13.5923 22.872 13.5923 22.872C13.5923 22.872 15.6276 20.1473 15.823 19.3475C16.0185 18.5477 15.1559 17.9198 15.0256 17.8095C15.0256 17.8095 14.9005 18.3735 14.8197 18.6606C14.0412 18.4493 13.2997 18.1235 12.6202 17.6942C11.9209 17.2956 11.2931 16.7864 10.7621 16.187C10.9888 15.9871 11.4475 15.6282 11.4475 15.6282C11.2963 15.559 10.3451 15.0797 9.70146 15.6077C9.05775 16.1358 7.47324 19.1476 7.47324 19.1476C7.47324 19.1476 7.42373 15.618 8.67983 13.5853C9.53982 12.3037 10.3113 11.8654 11.6585 12.6933L11.7576 14.2876C11.7576 14.2876 12.8261 9.59432 14.6243 7.52579C16.3339 5.55209 20.4254 4.79337 20.7928 4.72929C20.884 5.09071 22.0151 9.033 20.9778 11.4168Z" fill="#FF6F36"/>
<path d="M14.6383 6.10531e-05C12.6997 -0.0253822 10.7752 0.328196 8.97675 1.04027C7.17822 1.75234 5.54144 2.80873 4.16141 4.14809C2.78139 5.48746 1.68562 7.08311 0.93772 8.84241C0.189814 10.6017 -0.195312 12.4897 -0.195312 14.3965C-0.195312 16.3034 0.189814 18.1913 0.93772 19.9507C1.68562 21.71 2.78139 23.3056 4.16141 24.645C5.54144 25.9844 7.17822 27.0408 8.97675 27.7528C10.7752 28.4649 12.6997 28.8185 14.6383 28.793C15.0734 28.793 15.5061 28.7725 15.9413 28.7367C16.1106 27.8306 16.3987 26.95 16.7987 26.117C16.0885 26.244 15.3679 26.3075 14.6461 26.3067C12.8538 26.3071 11.0838 25.9162 9.46367 25.1622C7.84355 24.4082 6.41382 23.3098 5.27759 21.9465C4.14137 20.5831 3.32698 18.9887 2.89318 17.2783C2.45937 15.5679 2.41698 13.784 2.76905 12.0554C3.12111 10.327 3.85887 8.6969 4.92907 7.28277C5.99929 5.86868 7.37528 4.70587 8.95776 3.87822C10.5403 3.05058 12.2898 2.57874 14.0801 2.49674C15.8705 2.41474 17.657 2.72463 19.3109 3.40406C19.9524 3.24193 20.6034 3.11866 21.2603 3.03495L21.9092 2.96061L22.1229 3.5681C22.1411 3.62706 22.4122 4.41141 22.6441 5.47003C23.9619 6.61381 25.0108 8.02607 25.7178 9.60869C26.4249 11.1913 26.7732 12.9064 26.7384 14.6347C26.7037 16.363 26.2868 18.0633 25.5168 19.6172C24.7467 21.1712 23.6419 22.5415 22.2792 23.6332C20.9475 24.7508 19.4126 26.4015 18.8913 28.1753C22.2504 27.1728 25.1313 25.0164 27.009 22.0993C28.8866 19.1822 29.636 15.6985 29.1205 12.2833C28.6049 8.86817 26.8588 5.74895 24.2005 3.49422C21.5421 1.2395 18.1485 -0.000570123 14.6383 6.10531e-05Z" fill="#5552D8"/>
</g>
</g>
<defs>
<clipPath id="clip0_145_6594">
<rect width="111" height="29" fill="white"/>
</clipPath>
</defs>
</svg>
