<svg width="151" height="40" viewBox="0 0 151 40" fill="none" xmlns="http://www.w3.org/2000/svg">
<g clip-path="url(#clip0_2_5)">
<mask id="mask0_2_5" style="mask-type:luminance" maskUnits="userSpaceOnUse" x="0" y="0" width="151" height="40">
<path d="M151 0H0V39.7145H151V0Z" fill="white"/>
</mask>
<g mask="url(#mask0_2_5)">
<path d="M54.2808 25.8093C54.7575 25.8202 55.2338 25.7727 55.6988 25.6678C56.019 25.5967 56.3223 25.4647 56.5922 25.2789C56.8025 25.1363 56.9654 24.9344 57.0602 24.699C57.1492 24.4581 57.1937 24.2029 57.1913 23.946C57.1916 23.6503 57.1161 23.3594 56.9722 23.1008C56.8284 22.8422 56.6206 22.6244 56.3689 22.4682C55.4828 21.9275 54.5293 21.5055 53.5328 21.213C52.9442 21.008 52.3533 20.7723 51.7602 20.506C51.1864 20.2476 50.6538 19.907 50.179 19.4948C49.6973 19.0891 49.3019 18.5915 49.0162 18.0311C48.6998 17.3696 48.5467 16.6423 48.5695 15.9097C48.5576 15.1384 48.7174 14.3741 49.0375 13.6718C49.343 13.0141 49.7953 12.4348 50.3598 11.9783C50.9764 11.4931 51.6821 11.1328 52.4373 10.9176C53.329 10.6559 54.2553 10.5295 55.1848 10.5429C57.0337 10.5048 58.8625 10.9315 60.5026 11.7838L59.3363 14.9658C58.7978 14.6926 58.2383 14.4631 57.6629 14.2799C56.943 14.067 56.1943 13.9669 55.4436 13.9829C54.4745 13.9829 53.7785 14.1173 53.3555 14.386C53.1488 14.5147 52.9808 14.6966 52.8691 14.9124C52.7575 15.1283 52.7063 15.3703 52.7209 15.6128C52.7109 15.9061 52.7926 16.1953 52.9548 16.4401C53.1314 16.685 53.3557 16.8918 53.6143 17.0482C53.9255 17.2384 54.2543 17.3983 54.5963 17.5255C54.9508 17.674 55.3798 17.8224 55.83 17.9781C56.7754 18.3246 57.5884 18.6651 58.2691 18.9999C58.9034 19.2988 59.4862 19.6961 59.9956 20.1771C60.4498 20.6222 60.7997 21.1618 61.0201 21.7575C61.267 22.4641 61.387 23.2086 61.3746 23.9567C61.3746 25.6277 60.7838 26.9241 59.602 27.8457C58.4203 28.7673 56.6477 29.2281 54.2844 29.2281C53.5645 29.2337 52.8453 29.1864 52.1324 29.0867C51.5583 29.0041 50.9901 28.886 50.4307 28.7331C49.998 28.6164 49.5739 28.47 49.1616 28.2947C48.807 28.1391 48.5092 27.9942 48.2646 27.8563L49.4061 24.6461C50.0413 24.9874 50.7117 25.2588 51.4057 25.4557C52.3425 25.7083 53.3104 25.8273 54.2808 25.8093Z" fill="#FF6F36"/>
<path d="M64.0864 11.8723L67.9507 11.2537V15.2629H72.5949V18.4696H67.9507V23.2567C67.9184 23.9302 68.0664 24.6002 68.3796 25.1978C68.6632 25.6821 69.2412 25.9048 70.1061 25.9048C70.5366 25.9033 70.966 25.8643 71.3895 25.7882C71.8011 25.7195 72.2048 25.6106 72.5949 25.4629L73.1409 28.4646C72.6362 28.6791 72.1158 28.8552 71.5845 28.9914C70.8943 29.1422 70.1887 29.2122 69.4822 29.2C68.5894 29.2285 67.6994 29.0832 66.8623 28.7721C66.2167 28.5205 65.6457 28.1092 65.2032 27.5772C64.771 27.0376 64.4722 26.4041 64.3311 25.7281C64.1611 24.9381 64.079 24.1319 64.0864 23.3239V11.8723Z" fill="#FF6F36"/>
<path d="M87.3821 28.4045C86.5464 28.6327 85.6975 28.8098 84.8402 28.9348C83.7589 29.1036 82.666 29.1864 81.5716 29.1822C80.5863 29.2116 79.6044 29.0533 78.6787 28.7155C77.9663 28.4454 77.3361 27.9959 76.8494 27.4109C76.3861 26.8207 76.0582 26.1365 75.8886 25.4064C75.6914 24.5664 75.5962 23.7058 75.6051 22.8431V15.2629H79.4692V22.3764C79.4692 23.6161 79.6336 24.5131 79.962 25.0669C80.2917 25.622 80.905 25.8942 81.8055 25.8942C82.082 25.8942 82.3763 25.8942 82.6847 25.8588C82.9932 25.8235 83.2733 25.8024 83.5179 25.7669V15.2629H87.3821V28.4045Z" fill="#FF6F36"/>
<path d="M103.051 28.4326C102.697 28.5352 102.307 28.6342 101.856 28.7297C101.406 28.8251 100.935 28.9064 100.438 28.9736C99.942 29.0407 99.4457 29.1009 98.9351 29.1433C98.4247 29.1857 97.9355 29.207 97.4675 29.207C96.4428 29.224 95.4233 29.0577 94.4576 28.7154C93.6196 28.4199 92.8593 27.9396 92.2331 27.3103C91.607 26.681 91.1314 25.919 90.8415 25.081C90.5072 24.1379 90.3439 23.1431 90.3594 22.143C90.3464 21.132 90.4862 20.1249 90.7742 19.1554C91.0191 18.3302 91.4251 17.5612 91.9688 16.8927C92.4831 16.2771 93.1369 15.7923 93.8762 15.4785C94.6927 15.1367 95.5716 14.9682 96.4571 14.9836C96.9413 14.9785 97.4245 15.0307 97.8964 15.1391C98.3362 15.2493 98.7655 15.3972 99.1798 15.5811V9.4151L103.048 8.79639L103.051 28.4326ZM94.3016 21.9626C94.2506 22.9807 94.5317 23.988 95.1028 24.8334C95.3804 25.1972 95.7437 25.4869 96.1606 25.6769C96.5774 25.8669 97.0349 25.9512 97.4923 25.9224C97.8468 25.9224 98.1552 25.9224 98.4495 25.8836C98.7437 25.8446 98.9848 25.827 99.1586 25.7916V18.7807C98.8726 18.6039 98.562 18.4705 98.2368 18.3847C97.8515 18.2833 97.4546 18.2323 97.0562 18.2326C95.2198 18.2374 94.3016 19.4807 94.3016 21.9626Z" fill="#FF6F36"/>
<path d="M118.41 15.2629C117.627 17.8862 116.812 20.3411 115.963 22.6274C115.115 24.9138 114.187 27.1411 113.18 29.3095C112.866 29.9958 112.501 30.6576 112.088 31.2894C111.759 31.7947 111.356 32.2486 110.893 32.6365C110.461 32.9899 109.962 33.2532 109.426 33.4107C108.804 33.5848 108.161 33.6682 107.515 33.6582C106.953 33.6627 106.391 33.6058 105.841 33.4885C105.412 33.4 104.991 33.2746 104.583 33.1138L105.257 30.0344C105.603 30.158 105.959 30.2538 106.32 30.3207C106.646 30.3727 106.976 30.3987 107.306 30.3985C107.596 30.4172 107.886 30.3774 108.161 30.2814C108.435 30.1854 108.687 30.0352 108.901 29.8399C109.318 29.3968 109.64 28.8735 109.848 28.3019C108.964 26.5766 108.082 24.6404 107.203 22.4931C106.247 20.1287 105.419 17.7153 104.721 15.2629H108.819C108.994 15.9347 109.199 16.6629 109.433 17.4479C109.667 18.2327 109.915 19.0282 110.174 19.8273C110.433 20.6264 110.699 21.4112 110.968 22.1713C111.237 22.9314 111.496 23.6173 111.737 24.2396C111.964 23.6173 112.198 22.9314 112.446 22.1713C112.694 21.4112 112.928 20.6299 113.155 19.8273C113.382 19.0247 113.613 18.2327 113.832 17.4479C114.052 16.6629 114.244 15.9347 114.417 15.2629H118.41Z" fill="#FF6F36"/>
<path d="M127.981 28.7942C126.868 28.8192 125.76 28.6394 124.712 28.2639C123.854 27.9498 123.079 27.4456 122.444 26.7896C121.84 26.1482 121.388 25.3798 121.121 24.5411C120.825 23.6081 120.68 22.6344 120.692 21.656V10.5227H124.755V21.3201C124.741 21.9454 124.823 22.5689 124.999 23.1693C125.135 23.6253 125.364 24.0481 125.673 24.4102C125.953 24.7253 126.312 24.9618 126.712 25.0961C127.143 25.2385 127.594 25.3089 128.049 25.3047C128.492 25.3246 128.935 25.2542 129.35 25.098C129.764 24.9419 130.144 24.7029 130.462 24.3961C131.076 23.7951 131.385 22.7662 131.385 21.3201V10.5227H135.426V21.656C135.437 22.6386 135.288 23.6165 134.986 24.5516C134.713 25.3986 134.25 26.1732 133.636 26.8179C132.989 27.4745 132.199 27.974 131.328 28.2781C130.252 28.6478 129.119 28.8225 127.981 28.7942Z" fill="#5552D8"/>
<path d="M150.999 22.0688C151.01 23.0395 150.879 24.0066 150.61 24.9396C150.379 25.7482 149.991 26.5039 149.468 27.1635C148.967 27.7851 148.327 28.2815 147.6 28.613C146.793 28.9706 145.916 29.1468 145.034 29.1292C144.528 29.1319 144.024 29.0797 143.53 28.9736C143.066 28.8729 142.614 28.7261 142.18 28.5353V33.6582H138.315V15.7296C138.669 15.6235 139.06 15.5246 139.507 15.4326C139.953 15.3407 140.428 15.2559 140.925 15.1851C141.42 15.1144 141.921 15.0614 142.431 15.0154C142.942 14.9695 143.427 14.9517 143.895 14.9517C144.922 14.9355 145.941 15.1069 146.905 15.4574C147.745 15.7577 148.507 16.2427 149.133 16.876C149.76 17.5094 150.235 18.2751 150.525 19.1166C150.854 20.0656 151.015 21.0647 150.999 22.0688ZM147.058 22.1713C147.109 21.156 146.826 20.1519 146.252 19.311C145.972 18.9537 145.608 18.6703 145.192 18.4855C144.777 18.3007 144.321 18.22 143.867 18.2504C143.512 18.2504 143.201 18.2504 142.907 18.2893C142.612 18.3282 142.371 18.3423 142.18 18.3777V25.325C142.473 25.503 142.792 25.6342 143.126 25.7139C143.511 25.8181 143.908 25.8704 144.307 25.8695C146.14 25.8695 147.058 24.6367 147.058 22.1713Z" fill="#5552D8"/>
<path d="M24.947 11.8796C24.5248 11.6194 24.0346 11.49 23.5387 11.5077C23.0426 11.5254 22.563 11.6893 22.1603 11.9787C21.7578 12.2682 21.4503 12.6702 21.2766 13.1339C21.1031 13.5976 21.0713 14.1023 21.1852 14.5839C21.2992 15.0657 21.5539 15.503 21.9169 15.8404C22.28 16.1779 22.7352 16.4004 23.2251 16.4799C23.715 16.5595 24.2175 16.4923 24.6692 16.287C25.1208 16.0817 25.5012 15.7476 25.7624 15.3266C25.936 15.047 26.0526 14.7359 26.1056 14.4112C26.1585 14.0866 26.1469 13.7546 26.0711 13.4345C25.9954 13.1144 25.8571 12.8123 25.6642 12.5455C25.4714 12.2786 25.2276 12.0524 24.947 11.8796ZM25.0854 12.8624C24.6918 12.6325 24.2237 12.5651 23.7811 12.6746C23.3384 12.7843 22.9563 13.0619 22.7161 13.4486C22.4759 13.8353 22.3969 14.3003 22.4957 14.7443C22.5947 15.1883 22.8637 15.5762 23.2454 15.8251H23.2666C23.0448 15.7812 22.8323 15.6986 22.6392 15.5812C22.216 15.3205 21.9141 14.9029 21.7997 14.4202C21.6854 13.9376 21.768 13.4293 22.0294 13.0073C22.2908 12.5853 22.7095 12.2843 23.1935 12.1703C23.6775 12.0562 24.1872 12.1385 24.6103 12.3992C24.806 12.5189 24.977 12.675 25.1137 12.8589L25.0854 12.8624Z" fill="#F2881D"/>
<path d="M30.223 11.5754C30.223 8.70813 29.0495 5.28223 29.0495 5.28223C26.9367 5.57007 24.8754 6.15451 22.9269 7.01816C20.9841 6.56522 18.9638 6.5561 17.0169 6.99147C15.0701 7.42686 13.2471 8.29547 11.6843 9.53239C10.1215 10.7693 8.85925 12.3425 7.99195 14.1344C7.12465 15.9264 6.67472 17.8906 6.6758 19.8804C6.6707 22.8162 7.65172 25.669 9.46232 27.9838C12.224 26.3716 14.3086 23.5679 14.3086 23.5679C15.0747 24.3393 15.9387 25.0073 16.8788 25.5549C16.8788 25.5549 16.2833 27.5595 13.6173 30.7875C13.798 30.6708 16.6626 28.7263 18.0275 26.163C18.304 26.2868 18.5983 26.3998 18.8961 26.5165C18.8961 26.5165 17.1944 29.9778 16.7087 32.7213C19.4076 33.4011 22.2526 33.2155 24.8398 32.1909C27.4269 31.1664 29.6246 29.355 31.1207 27.0139C32.6168 24.673 33.3353 21.9213 33.1742 19.1499C33.013 16.3786 31.9803 13.7283 30.223 11.5754ZM28.5389 15.7473C27.0819 19.1344 22.0477 23.2356 21.8918 23.3629L23.9267 22.5072C25.7666 23.6351 25.6992 24.8478 24.6357 26.6756C22.895 29.4404 18.4919 31.5476 18.4919 31.5476C18.4919 31.5476 21.2607 27.7893 21.5265 26.6863C21.7924 25.5831 20.619 24.717 20.4418 24.5649C20.4418 24.5649 20.2716 25.3428 20.1616 25.7388C19.1026 25.4473 18.0939 24.9979 17.1696 24.4058C16.2182 23.8561 15.3642 23.1537 14.6419 22.327C14.9502 22.0512 15.5742 21.5562 15.5742 21.5562C15.3686 21.4608 14.0746 20.7996 13.199 21.5279C12.3233 22.2563 10.1678 26.4105 10.1678 26.4105C10.1678 26.4105 10.1005 21.5421 11.8092 18.7384C12.9791 16.9706 14.0286 16.366 15.8613 17.508L15.996 19.7071C15.996 19.7071 17.4497 13.2336 19.8959 10.3804C22.2215 7.65809 27.7874 6.61158 28.2872 6.52319C28.4113 7.0217 29.95 12.4593 28.5389 15.7473Z" fill="#FF6F36"/>
<path d="M19.9134 5.89552e-05C17.2762 -0.0350352 14.6582 0.452659 12.2117 1.43484C9.76503 2.417 7.53842 3.87408 5.66109 5.72148C3.78376 7.56888 2.29312 9.76978 1.27571 12.1964C0.258286 14.623 -0.265625 17.2271 -0.265625 19.8572C-0.265625 22.4875 0.258286 25.0915 1.27571 27.5182C2.29312 29.9448 3.78376 32.1457 5.66109 33.9931C7.53842 35.8405 9.76503 37.2976 12.2117 38.2797C14.6582 39.2619 17.2762 39.7496 19.9134 39.7145C20.5054 39.7145 21.0939 39.6862 21.686 39.6367C21.9163 38.387 22.3083 37.1724 22.8523 36.0235C21.8862 36.1986 20.906 36.2862 19.924 36.2851C17.4858 36.2856 15.078 35.7464 12.8741 34.7064C10.6701 33.6664 8.72517 32.1515 7.1795 30.271C5.63383 28.3905 4.52596 26.1913 3.93583 23.832C3.34571 21.4729 3.28803 19.0124 3.76697 16.6282C4.2459 14.244 5.24952 11.9957 6.70538 10.0452C8.16126 8.0947 10.0331 6.49084 12.1858 5.34925C14.3387 4.20767 16.7187 3.55686 19.1541 3.44375C21.5897 3.33065 24.02 3.75808 26.2699 4.69522C27.1425 4.4716 28.0281 4.30158 28.9217 4.18611L29.8045 4.08358L30.0952 4.92149C30.1199 5.00281 30.4887 6.08468 30.8041 7.54485C32.5969 9.12247 34.0238 11.0704 34.9855 13.2533C35.9475 15.4363 36.4212 17.8019 36.3739 20.1858C36.3267 22.5697 35.7597 24.9149 34.7121 27.0582C33.6645 29.2016 32.1616 31.0917 30.3079 32.5975C28.4962 34.139 26.4082 36.4158 25.699 38.8624C30.2686 37.4797 34.1877 34.5053 36.742 30.4818C39.2962 26.4582 40.3157 21.6531 39.6144 16.9425C38.9131 12.2319 36.5378 7.92956 32.9215 4.81959C29.3051 1.70962 24.6885 -0.000811633 19.9134 5.89552e-05Z" fill="#5552D8"/>
</g>
</g>
<defs>
<clipPath id="clip0_2_5">
<rect width="151" height="40" fill="white"/>
</clipPath>
</defs>
</svg>
