<svg width="14" height="14" viewBox="0 0 14 14" fill="none" xmlns="http://www.w3.org/2000/svg">
<path d="M13.8601 3.7424L13.1588 3.05523C13.0653 2.96346 12.9577 2.91772 12.8359 2.91772C12.7145 2.91772 12.6069 2.96346 12.5135 3.05523L7.00007 8.45723L1.48692 3.05537C1.39342 2.96361 1.28582 2.91787 1.16426 2.91787C1.04265 2.91787 0.93504 2.96361 0.841585 3.05537L0.14033 3.74259C0.0466783 3.83416 0 3.9396 0 4.05876C0 4.17782 0.0468257 4.28326 0.14033 4.37483L6.6774 10.7803C6.77086 10.8719 6.87851 10.9177 7.00007 10.9177C7.12163 10.9177 7.22909 10.8719 7.3225 10.7803L13.8601 4.37483C13.9536 4.28321 14 4.17777 14 4.05876C14 3.9396 13.9536 3.83416 13.8601 3.7424Z" fill="black"/>
</svg>
