<svg width="30" height="30" viewBox="0 0 30 30" fill="none" xmlns="http://www.w3.org/2000/svg">
<g clip-path="url(#clip0_172_18332)">
<path d="M25.62 11.2837C22.89 10.1222 19.2235 9.37028 15.3075 9.16496C14.6822 9.12653 14.0728 9.11153 13.4963 9.11153C16.3913 5.57621 19.4972 3.20246 21.5428 3.12559C21.9441 3.11059 22.2853 3.19403 22.5591 3.36934C23.4432 3.9459 23.6869 5.58184 23.2378 7.85715C23.1891 8.16934 23.3888 8.47684 23.6869 8.5359C23.9991 8.59965 24.3019 8.39996 24.3657 8.08684C24.9272 5.2359 24.5119 3.27653 23.1891 2.41309C22.7157 2.1009 22.1391 1.95278 21.4988 1.97809C18.9403 2.07559 15.3272 4.85434 12.0113 9.13215C10.5713 9.17621 9.21379 9.2934 7.97347 9.4884C7.16722 5.86496 7.48503 3.26715 8.71597 2.64184C8.88566 2.54903 9.07222 2.5059 9.28691 2.48528C10.1607 2.41778 11.3616 2.97934 12.676 4.07246C12.9197 4.27215 13.2807 4.24778 13.4813 3.9984C13.6866 3.75465 13.6528 3.3984 13.4091 3.19309C11.8313 1.88903 10.3819 1.24965 9.1941 1.33684C8.83316 1.36684 8.4966 1.45965 8.1891 1.61059C6.69941 2.37184 6.1041 4.52059 6.47535 7.66028C6.56253 8.30903 6.67503 8.98778 6.84191 9.68153C2.73941 10.5018 0.128472 12.1481 0.0159724 14.2125C-0.0627776 15.6778 1.09503 17.069 3.36472 18.2409C3.64316 18.3872 3.99003 18.2793 4.13722 17.9925C4.28347 17.714 4.17566 17.3672 3.88691 17.22C2.07566 16.2872 1.09972 15.2372 1.15785 14.2762C1.2216 12.9234 3.3741 11.5359 7.11003 10.8C7.4466 12.0403 7.88629 13.3387 8.42253 14.6615C7.14847 17.0203 6.22503 19.3453 5.75253 21.4106C5.04847 24.4922 5.42535 26.6897 6.82597 27.5972C7.27503 27.8897 7.79722 28.0368 8.38316 28.0368C9.55035 28.0368 10.966 27.4603 12.5682 26.3184C12.8316 26.1318 12.886 25.7756 12.7041 25.5168C12.5194 25.2628 12.1613 25.199 11.9025 25.3856C9.9741 26.7665 8.34847 27.2259 7.45035 26.639C6.50253 26.0193 6.29253 24.2128 6.87941 21.6693C7.2741 19.9359 8.01191 18.0065 9.01316 16.019C9.2616 16.5665 9.52597 17.1131 9.79972 17.6606C11.5819 21.1565 13.7644 24.1931 15.9375 26.2209C17.671 27.8325 19.2825 28.6725 20.6053 28.6725C21.045 28.6725 21.4557 28.5787 21.8269 28.394C23.2566 27.6618 23.8782 25.6303 23.5744 22.6762C23.2969 19.9078 22.2516 16.5375 20.6307 13.1737C20.4947 12.8897 20.1516 12.7734 19.8694 12.9047C19.5807 13.0425 19.4578 13.3884 19.5957 13.6725C22.9547 20.6737 23.1947 26.4065 21.3094 27.3684C19.3172 28.3884 14.5266 24.4237 10.8207 17.1431C10.396 16.3265 10.0257 15.5165 9.69285 14.7309C10.1175 13.9743 10.5666 13.2075 11.0653 12.4462C11.5575 11.6897 12.0703 10.9622 12.5925 10.2637H13.0866C13.7607 10.2637 14.4928 10.2787 15.2541 10.3228C23.4132 10.7531 28.9707 13.5253 28.8582 15.7425C28.8094 16.6987 27.7003 17.6662 25.8253 18.3937C25.5328 18.5109 25.3866 18.8428 25.5028 19.1362C25.5919 19.3603 25.8019 19.5028 26.0353 19.5028C26.1094 19.5028 26.1769 19.4878 26.2407 19.4625C28.6228 18.54 29.9316 17.2697 30.0057 15.8015C30.0928 14.1403 28.546 12.539 25.6303 11.2987V11.2884L25.62 11.2837ZM10.0978 11.8115C9.76128 12.329 9.4491 12.8465 9.14535 13.3687C8.77879 12.4078 8.4816 11.4797 8.24253 10.6003C9.13128 10.4587 10.0978 10.3612 11.1272 10.2975C10.7757 10.7859 10.4344 11.2884 10.1025 11.8115V11.7975L10.0978 11.8115ZM15.0047 13.2815C12.7144 13.2815 12.7144 16.7193 15.0047 16.7193C17.2997 16.7193 17.2997 13.2815 15.0047 13.2815Z" fill="black"/>
</g>
<defs>
<clipPath id="clip0_172_18332">
<rect width="30" height="30" fill="white"/>
</clipPath>
</defs>
</svg>
