<svg width="30" height="30" viewBox="0 0 30 30" fill="none" xmlns="http://www.w3.org/2000/svg">
<path d="M19.5777 6.03751C19.3053 5.54932 18.6689 5.40645 18.2141 5.73139L17.7324 6.07539C17.3111 6.37633 16.7256 6.27875 16.4247 5.85742C16.1237 5.4361 16.2213 4.85057 16.6426 4.54964L17.1242 4.20564C18.4889 3.23085 20.3981 3.65944 21.2151 5.12402L22.0513 6.62292L24.6496 4.0246C25.0157 3.65848 25.6093 3.65848 25.9754 4.0246C26.3416 4.39071 26.3416 4.9843 25.9754 5.35043L23.0008 8.32501L24.1069 10.3078C24.3907 10.8162 25.0643 10.9459 25.5164 10.579L25.9718 10.2095C26.3738 9.88328 26.9643 9.94474 27.2904 10.3468C27.6167 10.7488 27.5553 11.3393 27.1532 11.6655L26.6978 12.035C25.3416 13.1356 23.3206 12.7466 22.4696 11.2213L21.6227 9.7032L19.1004 12.2254C18.7343 12.5915 18.1407 12.5915 17.7746 12.2254C17.4084 11.8593 17.4084 11.2657 17.7746 10.8996L20.6731 8.0011L19.5777 6.03751ZM10.4354 17.3653C8.61999 17.7195 6.56908 17.798 4.59003 17.8105C4.16104 19.3719 4.29253 20.5088 4.67333 21.2945C5.09915 22.1733 5.91443 22.7743 7.01369 23.0484C9.2617 23.6093 12.4723 22.7198 14.6073 20.2838C14.9486 19.8944 15.5409 19.8554 15.9303 20.1966C16.3197 20.538 16.3587 21.1303 16.0174 21.5196C13.4649 24.432 9.5539 25.6146 6.55985 24.8676C5.03809 24.488 3.70223 23.5901 2.98601 22.1123C2.27413 20.6431 2.25321 18.7641 3.01403 16.5681C4.04328 13.5973 5.60315 11.753 7.16114 10.6106C8.7099 9.47496 10.207 9.06922 11.0617 8.89412C13.0056 8.49591 14.6953 9.05032 15.6251 10.2708C16.5673 11.5076 16.5506 13.2041 15.5063 14.6304C14.3513 16.2079 12.4466 16.9726 10.4354 17.3653ZM11.438 10.731C10.7303 10.876 9.52109 11.2052 8.26985 12.1227C7.24078 12.8773 6.14863 14.0549 5.28778 15.9276C6.99019 15.9004 8.63454 15.8064 10.0762 15.525C11.9231 15.1645 13.2559 14.53 13.9934 13.5228C14.6043 12.6884 14.5161 11.9091 14.1336 11.4071C13.7388 10.8888 12.8511 10.4415 11.438 10.731Z" fill="#212121"/>
</svg>
