<svg width="250" height="250" viewBox="0 0 250 250" fill="none" xmlns="http://www.w3.org/2000/svg">
<circle cx="125.001" cy="125" r="112.762" fill="url(#paint0_linear_172_18285)"/>
<path d="M250 125C250 194.036 194.036 250 125 250C55.9644 250 0 194.036 0 125C0 55.9644 55.9644 0 125 0C194.036 0 250 55.9644 250 125ZM6.25 125C6.25 190.584 59.4162 243.75 125 243.75C190.584 243.75 243.75 190.584 243.75 125C243.75 59.4162 190.584 6.25 125 6.25C59.4162 6.25 6.25 59.4162 6.25 125Z" fill="url(#paint1_linear_172_18285)"/>
<path d="M70.8047 70.8042L179.196 179.196M179.196 70.8042L70.8047 179.196" stroke="white" stroke-width="7" stroke-linecap="round"/>
<defs>
<linearGradient id="paint0_linear_172_18285" x1="125.001" y1="12.2378" x2="125.001" y2="237.762" gradientUnits="userSpaceOnUse">
<stop stop-color="#EC0100"/>
<stop offset="1" stop-color="#C90506"/>
</linearGradient>
<linearGradient id="paint1_linear_172_18285" x1="125" y1="0" x2="125" y2="250" gradientUnits="userSpaceOnUse">
<stop stop-color="#EC0100"/>
<stop offset="1" stop-color="#C90506"/>
</linearGradient>
</defs>
</svg>
