<svg width="35" height="35" viewBox="0 0 35 35" fill="none" xmlns="http://www.w3.org/2000/svg">
<g clip-path="url(#clip0_20_2061)">
<path d="M5.46885 19.3866L26.2501 31.4179C26.5821 31.6095 26.9586 31.7106 27.3419 31.7109C27.7253 31.7113 28.102 31.6109 28.4343 31.4198C28.7666 31.2287 29.0429 30.9537 29.2354 30.6222C29.4279 30.2907 29.53 29.9145 29.5314 29.5311V5.46864C29.53 5.08531 29.4279 4.70906 29.2354 4.37759C29.0429 4.04612 28.7666 3.77107 28.4343 3.57999C28.102 3.38891 27.7253 3.28851 27.3419 3.28885C26.9586 3.28919 26.5821 3.39025 26.2501 3.58192L5.46885 15.6132C5.13644 15.8034 4.8602 16.0781 4.66807 16.4094C4.47594 16.7407 4.37476 17.1169 4.37476 17.4999C4.37476 17.8829 4.47594 18.2591 4.66807 18.5904C4.8602 18.9217 5.13644 19.1964 5.46885 19.3866Z" stroke="#5552D7" stroke-width="2.1875" stroke-linecap="round" stroke-linejoin="round"/>
</g>
<defs>
<clipPath id="clip0_20_2061">
<rect width="35" height="35" fill="white" transform="matrix(0 -1 1 0 0 35)"/>
</clipPath>
</defs>
</svg>
