<svg width="35" height="35" viewBox="0 0 35 35" fill="none" xmlns="http://www.w3.org/2000/svg">
<g clip-path="url(#clip0_20_2064)">
<path d="M29.5311 19.3866L8.7499 31.4179C8.41792 31.6095 8.04141 31.7106 7.65807 31.7109C7.27474 31.7113 6.89804 31.6109 6.56573 31.4198C6.23341 31.2287 5.95715 30.9537 5.7646 30.6222C5.57206 30.2907 5.47 29.9145 5.46865 29.5311V5.46864C5.47 5.08531 5.57206 4.70906 5.7646 4.37759C5.95715 4.04612 6.23341 3.77107 6.56573 3.57999C6.89804 3.38891 7.27474 3.28851 7.65807 3.28885C8.04141 3.28919 8.41792 3.39025 8.7499 3.58192L29.5311 15.6132C29.8636 15.8034 30.1398 16.0781 30.3319 16.4094C30.5241 16.7407 30.6252 17.1169 30.6252 17.4999C30.6252 17.8829 30.5241 18.2591 30.3319 18.5904C30.1398 18.9217 29.8636 19.1964 29.5311 19.3866Z" stroke="#5552D7" stroke-width="2.1875" stroke-linecap="round" stroke-linejoin="round"/>
</g>
<defs>
<clipPath id="clip0_20_2064">
<rect width="35" height="35" fill="white" transform="matrix(0 -1 -1 0 35 35)"/>
</clipPath>
</defs>
</svg>
