<svg width="54" height="22" viewBox="0 0 54 22" fill="none" xmlns="http://www.w3.org/2000/svg">
<path d="M0 1C0 0.447716 0.447715 0 1 0H42.3526C42.6222 0 42.8803 0.108852 43.0685 0.301873L52.8193 10.3019C53.198 10.6903 53.198 11.3097 52.8193 11.6981L43.0685 21.6981C42.8803 21.8911 42.6222 22 42.3526 22H1C0.447716 22 0 21.5523 0 21V1Z" fill="#7287FF"/>
<path d="M4.168 12.048V10.464H9.096V12.048H4.168ZM15.1296 16H13.4656V7.168L11.1456 9.024V7.232L13.6896 5.12H15.1296V16ZM24.9096 14.752C24.1416 15.6907 23.107 16.16 21.8056 16.16C20.5043 16.16 19.4696 15.6907 18.7016 14.752C17.9336 13.8027 17.5496 12.4 17.5496 10.544C17.5496 8.69867 17.9283 7.30667 18.6856 6.368C19.4536 5.42933 20.4936 4.96 21.8056 4.96C23.107 4.96 24.1416 5.42933 24.9096 6.368C25.6776 7.30667 26.0616 8.69867 26.0616 10.544C26.0616 12.4 25.6776 13.8027 24.9096 14.752ZM21.8056 14.656C23.5016 14.656 24.3496 13.2853 24.3496 10.544C24.3496 9.17867 24.1256 8.16 23.6776 7.488C23.2403 6.80533 22.6163 6.464 21.8056 6.464C21.0056 6.464 20.3816 6.80533 19.9336 7.488C19.4963 8.16 19.2776 9.17867 19.2776 10.544C19.2776 13.2853 20.1203 14.656 21.8056 14.656ZM29.9318 10.096C29.1531 10.096 28.5344 9.86667 28.0758 9.408C27.6278 8.94933 27.4038 8.32533 27.4038 7.536C27.4038 6.74667 27.6278 6.12267 28.0758 5.664C28.5344 5.19467 29.1531 4.96 29.9318 4.96C30.6891 4.96 31.2971 5.19467 31.7558 5.664C32.2144 6.13333 32.4438 6.75733 32.4438 7.536C32.4438 8.31467 32.2144 8.93867 31.7558 9.408C31.2971 9.86667 30.6891 10.096 29.9318 10.096ZM28.0438 16L36.0598 5.12H37.6918L29.6758 16H28.0438ZM29.0678 8.624C29.2811 8.89067 29.5691 9.024 29.9318 9.024C30.2944 9.024 30.5824 8.89067 30.7958 8.624C31.0091 8.35733 31.1158 7.99467 31.1158 7.536C31.1158 7.07733 31.0091 6.71467 30.7958 6.448C30.5824 6.17067 30.2944 6.032 29.9318 6.032C29.5691 6.032 29.2811 6.16533 29.0678 6.432C28.8544 6.69867 28.7478 7.06667 28.7478 7.536C28.7478 7.99467 28.8544 8.35733 29.0678 8.624ZM35.9318 16.16C35.1531 16.16 34.5344 15.9307 34.0758 15.472C33.6278 15.0133 33.4038 14.3893 33.4038 13.6C33.4038 12.8107 33.6278 12.1867 34.0758 11.728C34.5344 11.2587 35.1531 11.024 35.9318 11.024C36.6891 11.024 37.2971 11.2587 37.7558 11.728C38.2144 12.1973 38.4438 12.8213 38.4438 13.6C38.4438 14.3893 38.2144 15.0133 37.7558 15.472C37.3078 15.9307 36.6998 16.16 35.9318 16.16ZM35.0677 14.688C35.2811 14.9547 35.5691 15.088 35.9318 15.088C36.2944 15.088 36.5824 14.9547 36.7958 14.688C37.0091 14.4213 37.1158 14.0587 37.1158 13.6C37.1158 13.1413 37.0091 12.7787 36.7958 12.512C36.5824 12.2347 36.2944 12.096 35.9318 12.096C35.5691 12.096 35.2811 12.2293 35.0677 12.496C34.8544 12.7627 34.7478 13.1307 34.7478 13.6C34.7478 14.0587 34.8544 14.4213 35.0677 14.688Z" fill="white"/>
<circle cx="46" cy="11" r="2" fill="white"/>
</svg>
