<svg width="14" height="14" viewBox="0 0 14 14" fill="none" xmlns="http://www.w3.org/2000/svg">
<g clip-path="url(#clip0_2065_2451)">
<path d="M3.7424 0.139886L3.05523 0.841239C2.96346 0.934694 2.91772 1.04235 2.91772 1.16406C2.91772 1.28547 2.96346 1.39308 3.05523 1.48653L8.45723 6.99993L3.05537 12.5131C2.96361 12.6066 2.91787 12.7142 2.91787 12.8357C2.91787 12.9574 2.96361 13.065 3.05537 13.1584L3.74259 13.8597C3.83416 13.9533 3.9396 14 4.05876 14C4.17782 14 4.28326 13.9532 4.37483 13.8597L10.7803 7.3226C10.8719 7.22914 10.9177 7.12149 10.9177 6.99993C10.9177 6.87837 10.8719 6.77091 10.7803 6.6775L4.37483 0.139886C4.28321 0.0464315 4.17777 -5.50785e-08 4.05876 -4.98762e-08C3.9396 -4.46676e-08 3.83416 0.0464315 3.7424 0.139886Z" fill="black"/>
</g>
<defs>
<clipPath id="clip0_2065_2451">
<rect width="14" height="14" fill="white" transform="translate(0 14) rotate(-90)"/>
</clipPath>
</defs>
</svg>
